<mxfile host="app.diagrams.net" agent="Mozilla/5.0 (Windows NT 10.0; Win64; x64) AppleWebKit/537.36 (KHTML, like Gecko) Chrome/138.0.0.0 Safari/537.36" version="28.0.5">
  <diagram name="Página-1" id="6I9fO5M-Wvt5ASJzwq-T">
    <mxGraphModel dx="1281" dy="535" grid="1" gridSize="10" guides="1" tooltips="1" connect="1" arrows="1" fold="1" page="1" pageScale="1" pageWidth="827" pageHeight="1169" math="0" shadow="0">
      <root>
        <mxCell id="0" />
        <mxCell id="1" parent="0" />
        <mxCell id="LhfeiGHF28msuxDLN_1B-1" value="Inicio" style="ellipse;whiteSpace=wrap;html=1;fillColor=#dae8fc;" vertex="1" parent="1">
          <mxGeometry x="60" y="40" width="120" height="60" as="geometry" />
        </mxCell>
        <mxCell id="LhfeiGHF28msuxDLN_1B-2" value="¿Usuario registrado?" style="rhombus;whiteSpace=wrap;html=1;fillColor=#fff2cc;" vertex="1" parent="1">
          <mxGeometry x="60" y="130" width="140" height="70" as="geometry" />
        </mxCell>
        <mxCell id="LhfeiGHF28msuxDLN_1B-3" value="Login" style="rounded=1;whiteSpace=wrap;html=1;fillColor=#d5e8d4;" vertex="1" parent="1">
          <mxGeometry x="240" y="130" width="120" height="60" as="geometry" />
        </mxCell>
        <mxCell id="LhfeiGHF28msuxDLN_1B-4" value="Registro" style="rounded=1;whiteSpace=wrap;html=1;fillColor=#f8cecc;" vertex="1" parent="1">
          <mxGeometry x="60" y="230" width="120" height="60" as="geometry" />
        </mxCell>
        <mxCell id="LhfeiGHF28msuxDLN_1B-5" value="¿Credenciales válidas?" style="rhombus;whiteSpace=wrap;html=1;fillColor=#fff2cc;" vertex="1" parent="1">
          <mxGeometry x="240" y="210" width="140" height="70" as="geometry" />
        </mxCell>
        <mxCell id="LhfeiGHF28msuxDLN_1B-6" value="Error de acceso" style="rounded=1;whiteSpace=wrap;html=1;fillColor=#f8cecc;" vertex="1" parent="1">
          <mxGeometry x="430" y="210" width="120" height="60" as="geometry" />
        </mxCell>
        <mxCell id="LhfeiGHF28msuxDLN_1B-7" value="Asignar Rol" style="rounded=1;whiteSpace=wrap;html=1;fillColor=#dae8fc;" vertex="1" parent="1">
          <mxGeometry x="240" y="310" width="120" height="60" as="geometry" />
        </mxCell>
        <mxCell id="LhfeiGHF28msuxDLN_1B-8" value="Mostrar menú según Rol" style="rounded=1;whiteSpace=wrap;html=1;fillColor=#e1d5e7;" vertex="1" parent="1">
          <mxGeometry x="240" y="400" width="180" height="60" as="geometry" />
        </mxCell>
        <mxCell id="LhfeiGHF28msuxDLN_1B-9" value="Administrador" style="rounded=1;whiteSpace=wrap;html=1;fillColor=#fff;" vertex="1" parent="1">
          <mxGeometry x="70" y="480" width="120" height="40" as="geometry" />
        </mxCell>
        <mxCell id="LhfeiGHF28msuxDLN_1B-10" value="Instructor" style="rounded=1;whiteSpace=wrap;html=1;fillColor=#fff;" vertex="1" parent="1">
          <mxGeometry x="250" y="480" width="120" height="40" as="geometry" />
        </mxCell>
        <mxCell id="LhfeiGHF28msuxDLN_1B-11" value="Cliente" style="rounded=1;whiteSpace=wrap;html=1;fillColor=#fff;" vertex="1" parent="1">
          <mxGeometry x="420" y="480" width="120" height="40" as="geometry" />
        </mxCell>
        <mxCell id="LhfeiGHF28msuxDLN_1B-12" value="Acceso a módulos según permisos" style="rounded=1;whiteSpace=wrap;html=1;fillColor=#d5e8d4;" vertex="1" parent="1">
          <mxGeometry x="240" y="560" width="180" height="60" as="geometry" />
        </mxCell>
        <mxCell id="LhfeiGHF28msuxDLN_1B-13" value="¿Permiso suficiente?" style="rhombus;whiteSpace=wrap;html=1;fillColor=#fff2cc;" vertex="1" parent="1">
          <mxGeometry x="240" y="650" width="140" height="70" as="geometry" />
        </mxCell>
        <mxCell id="LhfeiGHF28msuxDLN_1B-14" value="Acción Permitida" style="rounded=1;whiteSpace=wrap;html=1;fillColor=#d5e8d4;" vertex="1" parent="1">
          <mxGeometry x="110" y="740" width="120" height="60" as="geometry" />
        </mxCell>
        <mxCell id="LhfeiGHF28msuxDLN_1B-15" value="Acceso denegado" style="rounded=1;whiteSpace=wrap;html=1;fillColor=#f8cecc;" vertex="1" parent="1">
          <mxGeometry x="370" y="740" width="120" height="60" as="geometry" />
        </mxCell>
        <mxCell id="LhfeiGHF28msuxDLN_1B-16" value="¿Salir?" style="rhombus;whiteSpace=wrap;html=1;fillColor=#fff2cc;" vertex="1" parent="1">
          <mxGeometry x="240" y="830" width="140" height="70" as="geometry" />
        </mxCell>
        <mxCell id="LhfeiGHF28msuxDLN_1B-17" value="Cerrar sesión" style="rounded=1;whiteSpace=wrap;html=1;fillColor=#dae8fc;" vertex="1" parent="1">
          <mxGeometry x="60" y="920" width="120" height="60" as="geometry" />
        </mxCell>
        <mxCell id="LhfeiGHF28msuxDLN_1B-18" value="Volver al menú" style="rounded=1;whiteSpace=wrap;html=1;fillColor=#e1d5e7;" vertex="1" parent="1">
          <mxGeometry x="580" y="920" width="120" height="60" as="geometry" />
        </mxCell>
        <mxCell id="LhfeiGHF28msuxDLN_1B-19" style="edgeStyle=orthogonalEdgeStyle;rounded=0;orthogonalLoop=1;jettySize=auto;html=1;exitX=0.5;exitY=1;exitDx=0;exitDy=0;entryX=0.5;entryY=0;entryDx=0;entryDy=0;" edge="1" parent="1" source="LhfeiGHF28msuxDLN_1B-1" target="LhfeiGHF28msuxDLN_1B-2">
          <mxGeometry relative="1" as="geometry" />
        </mxCell>
        <mxCell id="LhfeiGHF28msuxDLN_1B-20" value="Sí" style="edgeStyle=elbowEdgeStyle;rounded=0;orthogonalLoop=1;jettySize=auto;html=1;" edge="1" parent="1" source="LhfeiGHF28msuxDLN_1B-2" target="LhfeiGHF28msuxDLN_1B-3">
          <mxGeometry relative="1" as="geometry" />
        </mxCell>
        <mxCell id="LhfeiGHF28msuxDLN_1B-21" value="No" style="edgeStyle=elbowEdgeStyle;rounded=0;orthogonalLoop=1;jettySize=auto;html=1;" edge="1" parent="1" source="LhfeiGHF28msuxDLN_1B-2" target="LhfeiGHF28msuxDLN_1B-4">
          <mxGeometry relative="1" as="geometry" />
        </mxCell>
        <mxCell id="LhfeiGHF28msuxDLN_1B-22" style="edgeStyle=elbowEdgeStyle;rounded=0;orthogonalLoop=1;jettySize=auto;html=1;" edge="1" parent="1" source="LhfeiGHF28msuxDLN_1B-3" target="LhfeiGHF28msuxDLN_1B-5">
          <mxGeometry relative="1" as="geometry" />
        </mxCell>
        <mxCell id="LhfeiGHF28msuxDLN_1B-23" style="edgeStyle=elbowEdgeStyle;rounded=0;orthogonalLoop=1;jettySize=auto;html=1;" edge="1" parent="1" source="LhfeiGHF28msuxDLN_1B-4" target="LhfeiGHF28msuxDLN_1B-5">
          <mxGeometry relative="1" as="geometry" />
        </mxCell>
        <mxCell id="LhfeiGHF28msuxDLN_1B-24" value="No" style="edgeStyle=elbowEdgeStyle;rounded=0;orthogonalLoop=1;jettySize=auto;html=1;" edge="1" parent="1" source="LhfeiGHF28msuxDLN_1B-5" target="LhfeiGHF28msuxDLN_1B-6">
          <mxGeometry relative="1" as="geometry" />
        </mxCell>
        <mxCell id="LhfeiGHF28msuxDLN_1B-25" value="Sí" style="edgeStyle=elbowEdgeStyle;rounded=0;orthogonalLoop=1;jettySize=auto;html=1;" edge="1" parent="1" source="LhfeiGHF28msuxDLN_1B-5" target="LhfeiGHF28msuxDLN_1B-7">
          <mxGeometry relative="1" as="geometry" />
        </mxCell>
        <mxCell id="LhfeiGHF28msuxDLN_1B-26" style="edgeStyle=elbowEdgeStyle;rounded=0;orthogonalLoop=1;jettySize=auto;html=1;" edge="1" parent="1" source="LhfeiGHF28msuxDLN_1B-7" target="LhfeiGHF28msuxDLN_1B-8">
          <mxGeometry relative="1" as="geometry" />
        </mxCell>
        <mxCell id="LhfeiGHF28msuxDLN_1B-27" style="edgeStyle=elbowEdgeStyle;rounded=0;orthogonalLoop=1;jettySize=auto;html=1;" edge="1" parent="1" source="LhfeiGHF28msuxDLN_1B-8" target="LhfeiGHF28msuxDLN_1B-9">
          <mxGeometry relative="1" as="geometry" />
        </mxCell>
        <mxCell id="LhfeiGHF28msuxDLN_1B-28" style="edgeStyle=elbowEdgeStyle;rounded=0;orthogonalLoop=1;jettySize=auto;html=1;" edge="1" parent="1" source="LhfeiGHF28msuxDLN_1B-8" target="LhfeiGHF28msuxDLN_1B-10">
          <mxGeometry relative="1" as="geometry" />
        </mxCell>
        <mxCell id="LhfeiGHF28msuxDLN_1B-29" style="edgeStyle=elbowEdgeStyle;rounded=0;orthogonalLoop=1;jettySize=auto;html=1;" edge="1" parent="1" source="LhfeiGHF28msuxDLN_1B-8" target="LhfeiGHF28msuxDLN_1B-11">
          <mxGeometry relative="1" as="geometry" />
        </mxCell>
        <mxCell id="LhfeiGHF28msuxDLN_1B-30" style="edgeStyle=elbowEdgeStyle;rounded=0;orthogonalLoop=1;jettySize=auto;html=1;" edge="1" parent="1" source="LhfeiGHF28msuxDLN_1B-9" target="LhfeiGHF28msuxDLN_1B-12">
          <mxGeometry relative="1" as="geometry" />
        </mxCell>
        <mxCell id="LhfeiGHF28msuxDLN_1B-31" style="edgeStyle=elbowEdgeStyle;rounded=0;orthogonalLoop=1;jettySize=auto;html=1;" edge="1" parent="1" source="LhfeiGHF28msuxDLN_1B-10" target="LhfeiGHF28msuxDLN_1B-12">
          <mxGeometry relative="1" as="geometry" />
        </mxCell>
        <mxCell id="LhfeiGHF28msuxDLN_1B-32" style="edgeStyle=elbowEdgeStyle;rounded=0;orthogonalLoop=1;jettySize=auto;html=1;" edge="1" parent="1" source="LhfeiGHF28msuxDLN_1B-11" target="LhfeiGHF28msuxDLN_1B-12">
          <mxGeometry relative="1" as="geometry" />
        </mxCell>
        <mxCell id="LhfeiGHF28msuxDLN_1B-33" style="edgeStyle=elbowEdgeStyle;rounded=0;orthogonalLoop=1;jettySize=auto;html=1;" edge="1" parent="1" source="LhfeiGHF28msuxDLN_1B-12" target="LhfeiGHF28msuxDLN_1B-13">
          <mxGeometry relative="1" as="geometry" />
        </mxCell>
        <mxCell id="LhfeiGHF28msuxDLN_1B-34" value="Sí" style="edgeStyle=elbowEdgeStyle;rounded=0;orthogonalLoop=1;jettySize=auto;html=1;" edge="1" parent="1" source="LhfeiGHF28msuxDLN_1B-13" target="LhfeiGHF28msuxDLN_1B-14">
          <mxGeometry relative="1" as="geometry" />
        </mxCell>
        <mxCell id="LhfeiGHF28msuxDLN_1B-35" value="No" style="edgeStyle=elbowEdgeStyle;rounded=0;orthogonalLoop=1;jettySize=auto;html=1;" edge="1" parent="1" source="LhfeiGHF28msuxDLN_1B-13" target="LhfeiGHF28msuxDLN_1B-15">
          <mxGeometry relative="1" as="geometry" />
        </mxCell>
        <mxCell id="LhfeiGHF28msuxDLN_1B-36" style="edgeStyle=elbowEdgeStyle;rounded=0;orthogonalLoop=1;jettySize=auto;html=1;" edge="1" parent="1" source="LhfeiGHF28msuxDLN_1B-14" target="LhfeiGHF28msuxDLN_1B-16">
          <mxGeometry relative="1" as="geometry" />
        </mxCell>
        <mxCell id="LhfeiGHF28msuxDLN_1B-37" style="edgeStyle=elbowEdgeStyle;rounded=0;orthogonalLoop=1;jettySize=auto;html=1;" edge="1" parent="1" source="LhfeiGHF28msuxDLN_1B-15" target="LhfeiGHF28msuxDLN_1B-16">
          <mxGeometry relative="1" as="geometry" />
        </mxCell>
        <mxCell id="LhfeiGHF28msuxDLN_1B-38" value="Sí" style="edgeStyle=elbowEdgeStyle;rounded=0;orthogonalLoop=1;jettySize=auto;html=1;" edge="1" parent="1" source="LhfeiGHF28msuxDLN_1B-16" target="LhfeiGHF28msuxDLN_1B-17">
          <mxGeometry relative="1" as="geometry" />
        </mxCell>
        <mxCell id="LhfeiGHF28msuxDLN_1B-39" value="No" style="edgeStyle=elbowEdgeStyle;rounded=0;orthogonalLoop=1;jettySize=auto;html=1;" edge="1" parent="1" source="LhfeiGHF28msuxDLN_1B-16" target="LhfeiGHF28msuxDLN_1B-18">
          <mxGeometry relative="1" as="geometry" />
        </mxCell>
        <mxCell id="LhfeiGHF28msuxDLN_1B-40" style="edgeStyle=elbowEdgeStyle;rounded=0;orthogonalLoop=1;jettySize=auto;html=1;" edge="1" parent="1" source="LhfeiGHF28msuxDLN_1B-18" target="LhfeiGHF28msuxDLN_1B-12">
          <mxGeometry relative="1" as="geometry" />
        </mxCell>
        <mxCell id="LhfeiGHF28msuxDLN_1B-41" value="Inicio" style="ellipse;whiteSpace=wrap;html=1;fillColor=#dae8fc;" vertex="1" parent="1">
          <mxGeometry x="310" y="1120" width="120" height="60" as="geometry" />
        </mxCell>
        <mxCell id="LhfeiGHF28msuxDLN_1B-42" value="Ingresar usuario y contraseña" style="rounded=1;whiteSpace=wrap;html=1;fillColor=#d5e8d4;" vertex="1" parent="1">
          <mxGeometry x="290" y="1200" width="160" height="60" as="geometry" />
        </mxCell>
        <mxCell id="LhfeiGHF28msuxDLN_1B-43" value="¿Campos vacíos?" style="rhombus;whiteSpace=wrap;html=1;fillColor=#fff2cc;" vertex="1" parent="1">
          <mxGeometry x="310" y="1280" width="120" height="70" as="geometry" />
        </mxCell>
        <mxCell id="LhfeiGHF28msuxDLN_1B-44" value="Mostrar error\nCampos vacíos" style="rounded=1;whiteSpace=wrap;html=1;fillColor=#f8cecc;" vertex="1" parent="1">
          <mxGeometry x="60" y="1380" width="140" height="60" as="geometry" />
        </mxCell>
        <mxCell id="LhfeiGHF28msuxDLN_1B-45" value="Validar credenciales" style="rounded=1;whiteSpace=wrap;html=1;fillColor=#dae8fc;" vertex="1" parent="1">
          <mxGeometry x="340" y="1380" width="120" height="60" as="geometry" />
        </mxCell>
        <mxCell id="LhfeiGHF28msuxDLN_1B-46" value="¿Credenciales correctas?" style="rhombus;whiteSpace=wrap;html=1;fillColor=#fff2cc;" vertex="1" parent="1">
          <mxGeometry x="340" y="1470" width="140" height="70" as="geometry" />
        </mxCell>
        <mxCell id="LhfeiGHF28msuxDLN_1B-47" value="Acceso concedido\nRedirigir al sistema" style="rounded=1;whiteSpace=wrap;html=1;fillColor=#d5e8d4;" vertex="1" parent="1">
          <mxGeometry x="340" y="1580" width="160" height="60" as="geometry" />
        </mxCell>
        <mxCell id="LhfeiGHF28msuxDLN_1B-48" value="Mostrar error\nCredenciales incorrectas" style="rounded=1;whiteSpace=wrap;html=1;fillColor=#f8cecc;" vertex="1" parent="1">
          <mxGeometry x="140" y="1580" width="160" height="60" as="geometry" />
        </mxCell>
        <mxCell id="LhfeiGHF28msuxDLN_1B-49" style="edgeStyle=orthogonalEdgeStyle;rounded=0;orthogonalLoop=1;jettySize=auto;html=1;" edge="1" parent="1" source="LhfeiGHF28msuxDLN_1B-41" target="LhfeiGHF28msuxDLN_1B-42">
          <mxGeometry relative="1" as="geometry" />
        </mxCell>
        <mxCell id="LhfeiGHF28msuxDLN_1B-50" style="edgeStyle=orthogonalEdgeStyle;rounded=0;orthogonalLoop=1;jettySize=auto;html=1;" edge="1" parent="1" source="LhfeiGHF28msuxDLN_1B-42" target="LhfeiGHF28msuxDLN_1B-43">
          <mxGeometry relative="1" as="geometry" />
        </mxCell>
        <mxCell id="LhfeiGHF28msuxDLN_1B-51" value="Sí" style="edgeStyle=elbowEdgeStyle;rounded=0;orthogonalLoop=1;jettySize=auto;html=1;" edge="1" parent="1" source="LhfeiGHF28msuxDLN_1B-43" target="LhfeiGHF28msuxDLN_1B-44">
          <mxGeometry relative="1" as="geometry" />
        </mxCell>
        <mxCell id="LhfeiGHF28msuxDLN_1B-52" value="No" style="edgeStyle=elbowEdgeStyle;rounded=0;orthogonalLoop=1;jettySize=auto;html=1;" edge="1" parent="1" source="LhfeiGHF28msuxDLN_1B-43" target="LhfeiGHF28msuxDLN_1B-45">
          <mxGeometry relative="1" as="geometry" />
        </mxCell>
        <mxCell id="LhfeiGHF28msuxDLN_1B-53" style="edgeStyle=orthogonalEdgeStyle;rounded=0;orthogonalLoop=1;jettySize=auto;html=1;" edge="1" parent="1" source="LhfeiGHF28msuxDLN_1B-45" target="LhfeiGHF28msuxDLN_1B-46">
          <mxGeometry relative="1" as="geometry" />
        </mxCell>
        <mxCell id="LhfeiGHF28msuxDLN_1B-54" value="Sí" style="edgeStyle=elbowEdgeStyle;rounded=0;orthogonalLoop=1;jettySize=auto;html=1;" edge="1" parent="1" source="LhfeiGHF28msuxDLN_1B-46" target="LhfeiGHF28msuxDLN_1B-47">
          <mxGeometry relative="1" as="geometry" />
        </mxCell>
        <mxCell id="LhfeiGHF28msuxDLN_1B-55" value="No" style="edgeStyle=elbowEdgeStyle;rounded=0;orthogonalLoop=1;jettySize=auto;html=1;" edge="1" parent="1" source="LhfeiGHF28msuxDLN_1B-46" target="LhfeiGHF28msuxDLN_1B-48">
          <mxGeometry relative="1" as="geometry" />
        </mxCell>
        <mxCell id="LhfeiGHF28msuxDLN_1B-56" style="edgeStyle=elbowEdgeStyle;rounded=0;orthogonalLoop=1;jettySize=auto;html=1;" edge="1" parent="1" source="LhfeiGHF28msuxDLN_1B-44" target="LhfeiGHF28msuxDLN_1B-42">
          <mxGeometry relative="1" as="geometry" />
        </mxCell>
        <mxCell id="LhfeiGHF28msuxDLN_1B-57" style="edgeStyle=elbowEdgeStyle;rounded=0;orthogonalLoop=1;jettySize=auto;html=1;" edge="1" parent="1" source="LhfeiGHF28msuxDLN_1B-48" target="LhfeiGHF28msuxDLN_1B-42">
          <mxGeometry relative="1" as="geometry" />
        </mxCell>
        <mxCell id="LhfeiGHF28msuxDLN_1B-58" value="&lt;font style=&quot;font-size: 24px;&quot;&gt;&lt;b&gt;Diagrama de flujo Modulo Login&lt;/b&gt;&lt;/font&gt;" style="rounded=0;whiteSpace=wrap;html=1;" vertex="1" parent="1">
          <mxGeometry x="70" y="1030" width="620" height="60" as="geometry" />
        </mxCell>
        <mxCell id="LhfeiGHF28msuxDLN_1B-59" value="&lt;font style=&quot;font-size: 24px;&quot;&gt;&lt;b&gt;Diagrama de flujo Sistema de suscripciones&lt;/b&gt;&lt;/font&gt;" style="rounded=0;whiteSpace=wrap;html=1;" vertex="1" parent="1">
          <mxGeometry x="190" y="10" width="620" height="60" as="geometry" />
        </mxCell>
        <mxCell id="LhfeiGHF28msuxDLN_1B-60" value="Inicio" style="ellipse;whiteSpace=wrap;html=1;fillColor=#dae8fc;" vertex="1" parent="1">
          <mxGeometry x="290" y="1770" width="120" height="60" as="geometry" />
        </mxCell>
        <mxCell id="LhfeiGHF28msuxDLN_1B-61" value="Menú de opciones\n a) Cargar nuevo\n b) Ver vigentes\n c) Ver vencidos\n d) Buscar\n e) Salir" style="rounded=1;whiteSpace=wrap;html=1;fillColor=#fff2cc;" vertex="1" parent="1">
          <mxGeometry x="230" y="1850" width="240" height="90" as="geometry" />
        </mxCell>
        <mxCell id="LhfeiGHF28msuxDLN_1B-62" value="Cargar suscriptor nuevo" style="rounded=1;whiteSpace=wrap;html=1;fillColor=#d5e8d4;" vertex="1" parent="1">
          <mxGeometry x="100" y="1970" width="180" height="60" as="geometry" />
        </mxCell>
        <mxCell id="LhfeiGHF28msuxDLN_1B-63" value="Ingresar datos" style="rounded=1;whiteSpace=wrap;html=1;fillColor=#dae8fc;" vertex="1" parent="1">
          <mxGeometry x="100" y="2050" width="120" height="50" as="geometry" />
        </mxCell>
        <mxCell id="LhfeiGHF28msuxDLN_1B-64" value="¿Datos válidos?" style="rhombus;whiteSpace=wrap;html=1;fillColor=#fff2cc;" vertex="1" parent="1">
          <mxGeometry x="100" y="2120" width="120" height="70" as="geometry" />
        </mxCell>
        <mxCell id="LhfeiGHF28msuxDLN_1B-65" value="Guardar y mostrar éxito" style="rounded=1;whiteSpace=wrap;html=1;fillColor=#d5e8d4;" vertex="1" parent="1">
          <mxGeometry x="100" y="2210" width="160" height="50" as="geometry" />
        </mxCell>
        <mxCell id="LhfeiGHF28msuxDLN_1B-66" value="Mostrar error y volver" style="rounded=1;whiteSpace=wrap;html=1;fillColor=#f8cecc;" vertex="1" parent="1">
          <mxGeometry x="320" y="2190" width="160" height="50" as="geometry" />
        </mxCell>
        <mxCell id="LhfeiGHF28msuxDLN_1B-67" value="Ver suscriptores vigentes" style="rounded=1;whiteSpace=wrap;html=1;fillColor=#e1d5e7;" vertex="1" parent="1">
          <mxGeometry x="310" y="1970" width="180" height="60" as="geometry" />
        </mxCell>
        <mxCell id="LhfeiGHF28msuxDLN_1B-68" value="Listado suscriptores\n con suscripción activa" style="rounded=1;whiteSpace=wrap;html=1;fillColor=#dae8fc;" vertex="1" parent="1">
          <mxGeometry x="310" y="2050" width="180" height="60" as="geometry" />
        </mxCell>
        <mxCell id="LhfeiGHF28msuxDLN_1B-69" value="Ver suscriptores vencidos" style="rounded=1;whiteSpace=wrap;html=1;fillColor=#e1d5e7;" vertex="1" parent="1">
          <mxGeometry x="540" y="1970" width="180" height="60" as="geometry" />
        </mxCell>
        <mxCell id="LhfeiGHF28msuxDLN_1B-70" value="Listado suscriptores\n con suscripción vencida" style="rounded=1;whiteSpace=wrap;html=1;fillColor=#dae8fc;" vertex="1" parent="1">
          <mxGeometry x="540" y="2050" width="180" height="60" as="geometry" />
        </mxCell>
        <mxCell id="LhfeiGHF28msuxDLN_1B-71" value="Buscar suscriptor" style="rounded=1;whiteSpace=wrap;html=1;fillColor=#d5e8d4;" vertex="1" parent="1">
          <mxGeometry x="560" y="2450" width="180" height="60" as="geometry" />
        </mxCell>
        <mxCell id="LhfeiGHF28msuxDLN_1B-72" value="Ingresar criterio" style="rounded=1;whiteSpace=wrap;html=1;fillColor=#e1d5e7;" vertex="1" parent="1">
          <mxGeometry x="100" y="2380" width="120" height="50" as="geometry" />
        </mxCell>
        <mxCell id="LhfeiGHF28msuxDLN_1B-73" value="Mostrar resultados" style="rounded=1;whiteSpace=wrap;html=1;fillColor=#dae8fc;" vertex="1" parent="1">
          <mxGeometry x="100" y="2450" width="140" height="50" as="geometry" />
        </mxCell>
        <mxCell id="LhfeiGHF28msuxDLN_1B-74" value="Salir" style="ellipse;whiteSpace=wrap;html=1;fillColor=#f8cecc;" vertex="1" parent="1">
          <mxGeometry x="1020" y="2310" width="120" height="60" as="geometry" />
        </mxCell>
        <mxCell id="LhfeiGHF28msuxDLN_1B-75" style="edgeStyle=orthogonalEdgeStyle;rounded=0;orthogonalLoop=1;jettySize=auto;html=1;" edge="1" parent="1" source="LhfeiGHF28msuxDLN_1B-60" target="LhfeiGHF28msuxDLN_1B-61">
          <mxGeometry relative="1" as="geometry" />
        </mxCell>
        <mxCell id="LhfeiGHF28msuxDLN_1B-76" value="a" style="edgeStyle=elbowEdgeStyle;rounded=0;orthogonalLoop=1;jettySize=auto;html=1;" edge="1" parent="1" source="LhfeiGHF28msuxDLN_1B-61" target="LhfeiGHF28msuxDLN_1B-62">
          <mxGeometry relative="1" as="geometry" />
        </mxCell>
        <mxCell id="LhfeiGHF28msuxDLN_1B-77" value="b" style="edgeStyle=elbowEdgeStyle;rounded=0;orthogonalLoop=1;jettySize=auto;html=1;" edge="1" parent="1" source="LhfeiGHF28msuxDLN_1B-61" target="LhfeiGHF28msuxDLN_1B-67">
          <mxGeometry relative="1" as="geometry" />
        </mxCell>
        <mxCell id="LhfeiGHF28msuxDLN_1B-78" value="c" style="edgeStyle=elbowEdgeStyle;rounded=0;orthogonalLoop=1;jettySize=auto;html=1;" edge="1" parent="1" source="LhfeiGHF28msuxDLN_1B-61" target="LhfeiGHF28msuxDLN_1B-69">
          <mxGeometry relative="1" as="geometry" />
        </mxCell>
        <mxCell id="LhfeiGHF28msuxDLN_1B-79" value="d" style="edgeStyle=elbowEdgeStyle;rounded=0;orthogonalLoop=1;jettySize=auto;html=1;" edge="1" parent="1" source="LhfeiGHF28msuxDLN_1B-61" target="LhfeiGHF28msuxDLN_1B-71">
          <mxGeometry relative="1" as="geometry" />
        </mxCell>
        <mxCell id="LhfeiGHF28msuxDLN_1B-80" value="e" style="edgeStyle=elbowEdgeStyle;rounded=0;orthogonalLoop=1;jettySize=auto;html=1;" edge="1" parent="1" source="LhfeiGHF28msuxDLN_1B-61" target="LhfeiGHF28msuxDLN_1B-74">
          <mxGeometry relative="1" as="geometry" />
        </mxCell>
        <mxCell id="LhfeiGHF28msuxDLN_1B-81" style="edgeStyle=elbowEdgeStyle;rounded=0;orthogonalLoop=1;jettySize=auto;html=1;" edge="1" parent="1" source="LhfeiGHF28msuxDLN_1B-62" target="LhfeiGHF28msuxDLN_1B-63">
          <mxGeometry relative="1" as="geometry" />
        </mxCell>
        <mxCell id="LhfeiGHF28msuxDLN_1B-82" style="edgeStyle=elbowEdgeStyle;rounded=0;orthogonalLoop=1;jettySize=auto;html=1;" edge="1" parent="1" source="LhfeiGHF28msuxDLN_1B-63" target="LhfeiGHF28msuxDLN_1B-64">
          <mxGeometry relative="1" as="geometry" />
        </mxCell>
        <mxCell id="LhfeiGHF28msuxDLN_1B-83" value="Sí" style="edgeStyle=elbowEdgeStyle;rounded=0;orthogonalLoop=1;jettySize=auto;html=1;" edge="1" parent="1" source="LhfeiGHF28msuxDLN_1B-64" target="LhfeiGHF28msuxDLN_1B-65">
          <mxGeometry relative="1" as="geometry" />
        </mxCell>
        <mxCell id="LhfeiGHF28msuxDLN_1B-84" value="No" style="edgeStyle=elbowEdgeStyle;rounded=0;orthogonalLoop=1;jettySize=auto;html=1;" edge="1" parent="1" source="LhfeiGHF28msuxDLN_1B-64" target="LhfeiGHF28msuxDLN_1B-66">
          <mxGeometry relative="1" as="geometry" />
        </mxCell>
        <mxCell id="LhfeiGHF28msuxDLN_1B-85" style="edgeStyle=elbowEdgeStyle;rounded=0;orthogonalLoop=1;jettySize=auto;html=1;" edge="1" parent="1" source="LhfeiGHF28msuxDLN_1B-67" target="LhfeiGHF28msuxDLN_1B-68">
          <mxGeometry relative="1" as="geometry" />
        </mxCell>
        <mxCell id="LhfeiGHF28msuxDLN_1B-86" style="edgeStyle=elbowEdgeStyle;rounded=0;orthogonalLoop=1;jettySize=auto;html=1;" edge="1" parent="1" source="LhfeiGHF28msuxDLN_1B-69" target="LhfeiGHF28msuxDLN_1B-70">
          <mxGeometry relative="1" as="geometry" />
        </mxCell>
        <mxCell id="LhfeiGHF28msuxDLN_1B-87" style="edgeStyle=elbowEdgeStyle;rounded=0;orthogonalLoop=1;jettySize=auto;html=1;" edge="1" parent="1" source="LhfeiGHF28msuxDLN_1B-71" target="LhfeiGHF28msuxDLN_1B-72">
          <mxGeometry relative="1" as="geometry" />
        </mxCell>
        <mxCell id="LhfeiGHF28msuxDLN_1B-88" style="edgeStyle=elbowEdgeStyle;rounded=0;orthogonalLoop=1;jettySize=auto;html=1;" edge="1" parent="1" source="LhfeiGHF28msuxDLN_1B-72" target="LhfeiGHF28msuxDLN_1B-73">
          <mxGeometry relative="1" as="geometry" />
        </mxCell>
        <mxCell id="LhfeiGHF28msuxDLN_1B-89" value="&lt;font style=&quot;font-size: 24px;&quot;&gt;&lt;b&gt;Diagrama de flujo Modulo Gestion de suscriptores&lt;/b&gt;&lt;/font&gt;" style="rounded=0;whiteSpace=wrap;html=1;" vertex="1" parent="1">
          <mxGeometry x="104" y="1690" width="620" height="60" as="geometry" />
        </mxCell>
      </root>
    </mxGraphModel>
  </diagram>
</mxfile>
